<?xml version="1.0" standalone="no"?>
<!DOCTYPE svg PUBLIC "-//W3C//DTD SVG 20010904//EN"
 "http://www.w3.org/TR/2001/REC-SVG-20010904/DTD/svg10.dtd">
<svg version="1.0" xmlns="http://www.w3.org/2000/svg"
 width="322.000000pt" height="322.000000pt" viewBox="0 0 322.000000 322.000000"
 preserveAspectRatio="xMidYMid meet">
<metadata>
Created by potrace 1.11, written by Peter Selinger 2001-2013
</metadata>
<g transform="translate(0.000000,322.000000) scale(0.100000,-0.100000)"
fill="#000000" stroke="none">
<path d="M1368 3215 c-2 -2 -30 -6 -62 -10 -140 -16 -357 -89 -487 -165 -182
-106 -336 -243 -444 -395 -52 -72 -52 -66 13 -159 140 -199 333 -365 527 -455
59 -28 135 -61 140 -61 1 0 16 26 31 57 65 127 203 227 351 253 l71 13 22 61
c88 243 282 499 500 662 44 33 79 62 80 66 0 12 -203 85 -291 104 -100 21
-203 32 -316 32 -72 0 -133 -1 -135 -3z"/>
<path d="M2481 2833 c-211 -144 -395 -369 -489 -599 l-29 -70 61 -32 c135 -70
234 -209 252 -354 8 -63 9 -65 51 -78 70 -22 227 -102 311 -158 148 -98 276
-219 384 -365 28 -37 52 -67 54 -67 13 0 98 246 109 315 5 28 10 57 11 65 38
177 10 520 -56 675 -4 11 -18 47 -31 80 -61 162 -206 374 -333 488 -79 72 -94
85 -142 120 -29 20 -56 37 -61 37 -5 0 -46 -26 -92 -57z"/>
<path d="M116 2068 c-112 -248 -143 -597 -77 -879 52 -224 182 -465 344 -635
84 -88 235 -214 257 -214 26 0 183 114 266 192 93 88 195 218 246 313 36 66
98 201 98 213 0 4 -25 20 -56 35 -137 68 -235 210 -258 376 -3 24 -7 45 -8 45
-2 1 -21 8 -43 15 -82 27 -263 123 -354 188 -112 81 -250 216 -331 325 l-59
80 -25 -54z"/>
<path d="M1549 1925 c-3 -2 -14 -6 -25 -8 -75 -13 -159 -82 -199 -163 -24 -50
-29 -71 -29 -139 0 -68 4 -90 27 -137 126 -257 498 -230 587 44 53 163 -56
359 -221 397 -46 11 -132 14 -140 6z"/>
<path d="M2125 1193 c-66 -127 -200 -223 -343 -245 l-71 -11 -22 -61 c-93
-251 -291 -512 -512 -674 l-78 -57 53 -24 c96 -42 228 -81 333 -96 22 -4 51
-8 65 -11 40 -6 271 -6 315 1 174 27 251 47 369 94 242 97 472 277 616 482
l40 57 -62 94 c-76 113 -224 264 -337 343 -89 62 -260 151 -308 161 -26 5 -30
1 -58 -53z"/>
</g>
</svg>
