<svg version="1" xmlns="http://www.w3.org/2000/svg" width="429.333" height="429.333" viewBox="0 0 322.000000 322.000000"><path d="M136.8.5c-.2.2-3 .6-6.2 1-14 1.6-35.7 8.9-48.7 16.5-18.2 10.6-33.6 24.3-44.4 39.5-5.2 7.2-5.2 6.6 1.3 15.9 14 19.9 33.3 36.5 52.7 45.5 5.9 2.8 13.5 6.1 14 6.1.1 0 1.6-2.6 3.1-5.7 6.5-12.7 20.3-22.7 35.1-25.3l7.1-1.3 2.2-6.1c8.8-24.3 28.2-49.9 50-66.2 4.4-3.3 7.9-6.2 8-6.6 0-1.2-20.3-8.5-29.1-10.4-10-2.1-20.3-3.2-31.6-3.2-7.2 0-13.3.1-13.5.3zm111.3 38.2c-21.1 14.4-39.5 36.9-48.9 59.9l-2.9 7 6.1 3.2c13.5 7 23.4 20.9 25.2 35.4.8 6.3.9 6.5 5.1 7.8 7 2.2 22.7 10.2 31.1 15.8 14.8 9.8 27.6 21.9 38.4 36.5 2.8 3.7 5.2 6.7 5.4 6.7 1.3 0 9.8-24.6 10.9-31.5.5-2.8 1-5.7 1.1-6.5 3.8-17.7 1-52-5.6-67.5-.4-1.1-1.8-4.7-3.1-8-6.1-16.2-20.6-37.4-33.3-48.8-7.9-7.2-9.4-8.5-14.2-12-2.9-2-5.6-3.7-6.1-3.7s-4.6 2.6-9.2 5.7zM11.6 115.2C.4 140-2.7 174.9 3.9 203.1c5.2 22.4 18.2 46.5 34.4 63.5C46.7 275.4 61.8 288 64 288c2.6 0 18.3-11.4 26.6-19.2 9.3-8.8 19.5-21.8 24.6-31.3 3.6-6.6 9.8-20.1 9.8-21.3 0-.4-2.5-2-5.6-3.5-13.7-6.8-23.5-21-25.8-37.6-.3-2.4-.7-4.5-.8-4.5-.2-.1-2.1-.8-4.3-1.5-8.2-2.7-26.3-12.3-35.4-18.8-11.2-8.1-25-21.6-33.1-32.5l-5.9-8-2.5 5.4zm143.3 14.3c-.3.2-1.4.6-2.5.8-7.5 1.3-15.9 8.2-19.9 16.3-2.4 5-2.9 7.1-2.9 13.9 0 6.8.4 9 2.7 13.7 12.6 25.7 49.8 23 58.7-4.4 5.3-16.3-5.6-35.9-22.1-39.7-4.6-1.1-13.2-1.4-14-.6zm57.6 73.2c-6.6 12.7-20 22.3-34.3 24.5l-7.1 1.1-2.2 6.1c-9.3 25.1-29.1 51.2-51.2 67.4l-7.8 5.7 5.3 2.4c9.6 4.2 22.8 8.1 33.3 9.6 2.2.4 5.1.8 6.5 1.1 4 .6 27.1.6 31.5-.1 17.4-2.7 25.1-4.7 36.9-9.4 24.2-9.7 47.2-27.7 61.6-48.2l4-5.7-6.2-9.4c-7.6-11.3-22.4-26.4-33.7-34.3-8.9-6.2-26-15.1-30.8-16.1-2.6-.5-3-.1-5.8 5.3z"/></svg>